<svg width="18" height="18" viewBox="0 0 18 18" fill="none" xmlns="http://www.w3.org/2000/svg">
<path fill-rule="evenodd" clip-rule="evenodd" d="M8.70703 16.6221C8.55688 16.8849 8.26333 17.0317 7.96288 16.9942L7.62253 16.9516C5.77219 16.7203 4.57892 14.8749 5.12732 13.0926L5.54041 11.75H5.0017C3.02358 11.75 1.58693 9.86908 2.10741 7.96065L3.13014 4.21065C3.48609 2.90546 4.67157 2 6.02442 2H13.3059C14.5486 2 15.5559 3.00736 15.5559 4.25V9.5C15.5559 10.7427 14.5486 11.75 13.3059 11.75H11.8059C11.6113 11.75 11.4316 11.8543 11.335 12.0233L8.70703 16.6221ZM10.3059 3.5H6.02442C5.348 3.5 4.75526 3.95273 4.57728 4.60532L3.55455 8.35535C3.29431 9.3095 4.01264 10.25 5.0017 10.25H6.55589C6.79389 10.25 7.01778 10.363 7.15918 10.5544C7.30058 10.7459 7.34271 10.9931 7.27272 11.2206L6.56099 13.5337C6.30208 14.3752 6.81957 15.2447 7.65696 15.4365L10.0326 11.2791C10.2667 10.8693 10.6307 10.5606 11.0559 10.3926V4.25C11.0559 3.83579 10.7201 3.5 10.3059 3.5ZM12.5559 10.25V4.25C12.5559 3.98703 12.5108 3.73458 12.4279 3.5H13.3059C13.7201 3.5 14.0559 3.83579 14.0559 4.25V9.5C14.0559 9.91422 13.7201 10.25 13.3059 10.25H12.5559Z" fill="#ACACBE"/>
</svg>
