<svg width="16" height="16" viewBox="0 0 16 16" fill="none" xmlns="http://www.w3.org/2000/svg">
<g clip-path="url(#clip0_726_109)">
<path d="M8 0.199951C3.57486 0.199951 0 3.77481 0 8.19995C0 11.7245 2.30057 14.7257 5.47429 15.8C5.87429 15.8754 6.02514 15.6251 6.02514 15.4251V14.0754C3.8 14.5497 3.32457 13 3.32457 13C2.94971 12.0742 2.42514 11.8251 2.42514 11.8251C1.70057 11.3245 2.47543 11.3497 2.47543 11.3497C3.27543 11.4 3.69943 12.1748 3.69943 12.1748C4.42514 13.4 5.57486 13.0502 6.02514 12.8491C6.10057 12.3245 6.29943 11.9748 6.52457 11.7748C4.74971 11.5748 2.87543 10.8754 2.87543 7.82509C2.87543 6.94967 3.17486 6.25024 3.69943 5.67538C3.62514 5.47538 3.34971 4.65024 3.77486 3.54967C3.77486 3.54967 4.44914 3.32452 5.97486 4.37481C6.62664 4.19622 7.29906 4.104 7.97486 4.10052C8.64914 4.10052 9.34971 4.19995 9.97486 4.37481C11.5006 3.34967 12.1749 3.54967 12.1749 3.54967C12.6 4.65024 12.3246 5.47538 12.2503 5.67538C12.776 6.22395 13.0754 6.94967 13.0754 7.82395C13.0754 10.8994 11.2 11.5748 9.42514 11.7748C9.69943 12.0251 9.97486 12.4994 9.97486 13.2491V15.4502C9.97486 15.6754 10.1246 15.9245 10.5246 15.8251C13.7006 14.7245 16 11.7245 16 8.19995C16 3.77481 12.4251 0.199951 8 0.199951Z" fill="#888888"/>
</g>
<defs>
<clipPath id="clip0_726_109">
<rect width="16" height="16" fill="white"/>
</clipPath>
</defs>
</svg>
