<svg width="16" height="17" viewBox="0 0 16 17" fill="none" xmlns="http://www.w3.org/2000/svg">
<g clip-path="url(#clip0_143_696)">
<path fill-rule="evenodd" clip-rule="evenodd" d="M5.82804 2.42138C3.30641 3.3151 1.5 5.72172 1.5 8.54978C1.5 12.1396 4.41015 15.0498 8 15.0498C10.8282 15.0498 13.2348 13.2433 14.1285 10.7215C13.3293 11.0924 12.4386 11.2996 11.5 11.2996C8.04822 11.2996 5.25 8.5014 5.25 5.04962C5.25 4.11112 5.45718 3.22046 5.82804 2.42138ZM0 8.54978C0 4.33236 3.26298 0.877756 7.40265 0.571777L8.009 1.82849C7.22684 2.67569 6.75 3.80612 6.75 5.04962C6.75 7.67297 8.87665 9.79962 11.5 9.79962C12.7436 9.79962 13.8741 9.32272 14.7213 8.54047L15.978 9.14676C15.6722 13.2866 12.2175 16.5498 8 16.5498C3.58172 16.5498 0 12.9681 0 8.54978Z" fill="#EDEDED"/>
</g>
<defs>
<clipPath id="clip0_143_696">
<rect width="16" height="16" fill="white" transform="translate(0 0.549805)"/>
</clipPath>
</defs>
</svg>
