<svg width="18" height="18" viewBox="0 0 18 18" fill="none" xmlns="http://www.w3.org/2000/svg">
<path fill-rule="evenodd" clip-rule="evenodd" d="M9 3C8.17155 3 7.5 3.67157 7.5 4.5H10.5C10.5 3.67157 9.82845 3 9 3ZM6.40135 3C6.92006 2.1033 7.88955 1.5 9 1.5C10.1104 1.5 11.08 2.1033 11.5987 3H12.75C13.9927 3 15 4.00736 15 5.25V14.25C15 15.4927 13.9927 16.5 12.75 16.5H5.25C4.00736 16.5 3 15.4927 3 14.25V5.25C3 4.00736 4.00736 3 5.25 3H6.40135ZM6 4.5H5.25C4.83579 4.5 4.5 4.83579 4.5 5.25V14.25C4.5 14.6642 4.83579 15 5.25 15H12.75C13.1642 15 13.5 14.6642 13.5 14.25V5.25C13.5 4.83579 13.1642 4.5 12.75 4.5H12C12 5.32843 11.3284 6 10.5 6H7.5C6.67157 6 6 5.32843 6 4.5Z" fill="#ACACBE"/>
</svg>
