<svg width="22" height="26" viewBox="0 0 22 26" fill="none" xmlns="http://www.w3.org/2000/svg">
<path fill-rule="evenodd" clip-rule="evenodd" d="M11.9697 7.21971C13.2981 5.89128 15.4519 5.89128 16.7803 7.2197C18.1087 8.54813 18.1087 10.7019 16.7803 12.0304L16.0305 12.7802L10.3702 18.4405C10.0387 18.772 9.61169 18.9918 9.14916 19.0689L5.12331 19.7398C4.88439 19.7797 4.64095 19.7017 4.46968 19.5304C4.29841 19.3591 4.2204 19.1157 4.26021 18.8767L4.93119 14.8509C5.00829 14.3884 5.22798 13.9614 5.55959 13.6298L11.9697 7.21971ZM11.75 9.56069L6.62025 14.6905C6.50971 14.801 6.43648 14.9433 6.41078 15.0975L5.91243 18.0877L8.90256 17.5893C9.05675 17.5636 9.19905 17.4904 9.30959 17.3798L14.4394 12.25L11.75 9.56069ZM15.5 11.1894L12.8107 8.50004L13.0303 8.28037C13.773 7.53773 14.977 7.53773 15.7197 8.28037C16.4623 9.02301 16.4623 10.2271 15.7197 10.9697L15.5 11.1894Z" fill="#ACACBE"/>
</svg>
