<svg width="18" height="18" viewBox="0 0 18 18" fill="none" xmlns="http://www.w3.org/2000/svg">
<path fill-rule="evenodd" clip-rule="evenodd" d="M9.96969 3.21971C11.2981 1.89128 13.4519 1.89128 14.7803 3.2197C16.1087 4.54813 16.1087 6.70194 14.7803 8.03035L14.0305 8.7802L8.37024 14.4405C8.03866 14.772 7.61169 14.9918 7.14916 15.0689L3.12331 15.7398C2.88439 15.7797 2.64095 15.7017 2.46968 15.5304C2.29841 15.3591 2.2204 15.1157 2.26021 14.8767L2.93119 10.8509C3.00829 10.3884 3.22798 9.96138 3.55959 9.6298L9.96969 3.21971ZM9.75001 5.56069L4.62025 10.6905C4.50971 10.801 4.43648 10.9433 4.41078 11.0975L3.91243 14.0877L6.90256 13.5893C7.05675 13.5636 7.19905 13.4904 7.30959 13.3798L12.4394 8.25003L9.75001 5.56069ZM13.5 7.18938L10.8107 4.50004L11.0303 4.28037C11.773 3.53773 12.977 3.53773 13.7197 4.28037C14.4623 5.02301 14.4623 6.22707 13.7197 6.96971L13.5 7.18938Z" fill="#ACACBE"/>
</svg>
