<svg width="18" height="18" viewBox="0 0 18 18" fill="none" xmlns="http://www.w3.org/2000/svg">
<path fill-rule="evenodd" clip-rule="evenodd" d="M3.45642 2C3.87063 2 4.20642 2.33579 4.20642 2.75V3.92897C5.48046 2.73319 7.19504 2 9.08142 2C13.0164 2 16.2064 5.18997 16.2064 9.125C16.2064 13.06 13.0164 16.25 9.08142 16.25C5.42945 16.25 2.42013 13.5031 2.00517 9.9623C1.95695 9.55092 2.25137 9.17832 2.66277 9.1301C3.07417 9.08187 3.44676 9.37633 3.49497 9.7877C3.82241 12.5817 6.19923 14.75 9.08142 14.75C12.188 14.75 14.7064 12.2316 14.7064 9.125C14.7064 6.0184 12.188 3.5 9.08142 3.5C7.41612 3.5 5.91912 4.22352 4.88858 5.375H6.83142C7.24563 5.375 7.58142 5.71079 7.58142 6.125C7.58142 6.53921 7.24563 6.875 6.83142 6.875H3.45642C3.0519 6.875 2.72218 6.55474 2.70697 6.15394C2.70629 6.13828 2.70611 6.12258 2.70642 6.10685V2.75C2.70642 2.33579 3.0422 2 3.45642 2Z" fill="#ACACBE"/>
</svg>
