<svg width="16" height="16" viewBox="0 0 16 16" fill="none" xmlns="http://www.w3.org/2000/svg">
<path d="M7.49955 2C8.52344 1.99994 9.52702 2.28568 10.3973 2.82507C11.2676 3.36447 11.9701 4.13608 12.4256 5.05306C12.8811 5.97004 13.0716 6.99597 12.9757 8.01536C12.8798 9.03475 12.5012 10.0071 11.8825 10.823L13.7675 12.707C13.8372 12.7767 13.8925 12.8594 13.9302 12.9504C13.9679 13.0414 13.9873 13.139 13.9873 13.2375C13.9873 13.336 13.9679 13.4336 13.9302 13.5246C13.8925 13.6156 13.8372 13.6983 13.7675 13.768C13.6979 13.8377 13.6152 13.8929 13.5242 13.9306C13.4331 13.9683 13.3356 13.9877 13.237 13.9877C13.1385 13.9877 13.041 13.9683 12.9499 13.9306C12.8589 13.8929 12.7762 13.8377 12.7065 13.768L10.8225 11.883C10.1271 12.4102 9.31623 12.7643 8.45687 12.9161C7.59752 13.0679 6.71438 13.0131 5.88041 12.7561C5.04645 12.4992 4.2856 12.0474 3.66073 11.4383C3.03586 10.8291 2.56491 10.08 2.2868 9.25286C2.00868 8.4257 1.93138 7.54424 2.06128 6.6813C2.19117 5.81837 2.52455 4.99872 3.03385 4.2901C3.54315 3.58148 4.21375 3.00421 4.99026 2.606C5.76677 2.20779 6.62689 2.00007 7.49955 2ZM3.49955 7.5C3.49955 8.56087 3.92097 9.57828 4.67112 10.3284C5.42126 11.0786 6.43868 11.5 7.49955 11.5C8.56041 11.5 9.57783 11.0786 10.328 10.3284C11.0781 9.57828 11.4995 8.56087 11.4995 7.5C11.4995 6.43913 11.0781 5.42172 10.328 4.67157C9.57783 3.92143 8.56041 3.5 7.49955 3.5C6.43868 3.5 5.42126 3.92143 4.67112 4.67157C3.92097 5.42172 3.49955 6.43913 3.49955 7.5Z" fill="#999999"/>
</svg>
