<svg width="16" height="17" viewBox="0 0 16 17" fill="none" xmlns="http://www.w3.org/2000/svg">
<g clip-path="url(#clip0_143_700)">
<path fill-rule="evenodd" clip-rule="evenodd" d="M8.75 1.2998V0.549805H7.25V1.2998V2.5498V3.2998H8.75V2.5498V1.2998ZM11.182 4.30712L11.7123 3.77679L12.0659 3.42324L12.5962 2.89291L13.6569 3.95357L13.1265 4.4839L12.773 4.83745L12.2426 5.36778L11.182 4.30712ZM8 11.0498C9.38071 11.0498 10.5 9.93051 10.5 8.5498C10.5 7.16909 9.38071 6.0498 8 6.0498C6.61929 6.0498 5.5 7.16909 5.5 8.5498C5.5 9.93051 6.61929 11.0498 8 11.0498ZM8 12.5498C10.2091 12.5498 12 10.7589 12 8.5498C12 6.34066 10.2091 4.5498 8 4.5498C5.79086 4.5498 4 6.34066 4 8.5498C4 10.7589 5.79086 12.5498 8 12.5498ZM13.25 7.7998H14H15.25H16V9.2998H15.25H14H13.25V7.7998ZM0.75 7.7998H0V9.2998H0.75H2H2.75V7.7998H2H0.75ZM2.87348 12.6157L2.34315 13.146L3.40381 14.2067L3.93414 13.6763L4.28769 13.3228L4.81802 12.7924L3.75736 11.7318L3.22703 12.2621L2.87348 12.6157ZM3.75735 5.36778L3.22702 4.83745L2.87347 4.4839L2.34314 3.95357L3.4038 2.89291L3.93413 3.42324L4.28768 3.77679L4.81802 4.30712L3.75735 5.36778ZM12.0659 13.6763L12.5962 14.2067L13.6569 13.146L13.1265 12.6157L12.773 12.2621L12.2426 11.7318L11.182 12.7924L11.7123 13.3228L12.0659 13.6763ZM8.75 13.7998V14.5498V15.7998V16.5498H7.25V15.7998V14.5498V13.7998H8.75Z" fill="#A1A1A1"/>
</g>
<defs>
<clipPath id="clip0_143_700">
<rect width="16" height="16" fill="white" transform="translate(0 0.549805)"/>
</clipPath>
</defs>
</svg>
